<svg width="513" height="18" viewBox="0 0 513 18" fill="none" xmlns="http://www.w3.org/2000/svg">
<line y1="0.5" x2="513" y2="0.5" stroke="#939393"/>
<path d="M1.26 12.625H3.546C3.936 12.625 4.263 12.511 4.527 12.283C4.797 12.055 4.932 11.752 4.932 11.374C4.932 10.972 4.815 10.66 4.581 10.438C4.347 10.21 4.002 10.096 3.546 10.096H1.26V12.625ZM0.648 9.574H3.591C4.155 9.574 4.62 9.715 4.986 9.997C5.358 10.279 5.544 10.696 5.544 11.248C5.544 11.668 5.436 12.025 5.22 12.319C5.004 12.613 4.695 12.802 4.293 12.886V12.904C4.689 12.958 4.968 13.108 5.13 13.354C5.298 13.594 5.394 13.927 5.418 14.353C5.418 14.371 5.421 14.47 5.427 14.65C5.439 14.83 5.448 14.962 5.454 15.046C5.466 15.13 5.481 15.247 5.499 15.397C5.517 15.547 5.544 15.67 5.58 15.766C5.616 15.862 5.661 15.94 5.715 16H5.04C5.004 15.946 4.974 15.871 4.95 15.775C4.932 15.679 4.917 15.595 4.905 15.523C4.899 15.445 4.893 15.349 4.887 15.235C4.881 15.115 4.875 15.037 4.869 15.001C4.857 14.773 4.842 14.59 4.824 14.452C4.812 14.308 4.779 14.143 4.725 13.957C4.677 13.765 4.608 13.618 4.518 13.516C4.434 13.408 4.311 13.318 4.149 13.246C3.993 13.174 3.804 13.141 3.582 13.147H1.26V16H0.648V9.574ZM9.88193 13.354C9.86993 12.904 9.72893 12.517 9.45893 12.193C9.18893 11.863 8.83793 11.698 8.40593 11.698C7.96793 11.698 7.61693 11.86 7.35293 12.184C7.08893 12.502 6.92993 12.892 6.87593 13.354H9.88193ZM6.87593 13.831C6.87593 14.305 7.00493 14.728 7.26293 15.1C7.52693 15.472 7.90793 15.658 8.40593 15.658C9.17993 15.658 9.66593 15.262 9.86393 14.47H10.4309C10.1789 15.574 9.50393 16.126 8.40593 16.126C7.70393 16.126 7.17893 15.898 6.83093 15.442C6.48293 14.98 6.30893 14.392 6.30893 13.678C6.30893 13.246 6.37793 12.853 6.51593 12.499C6.65393 12.139 6.88493 11.836 7.20893 11.59C7.53893 11.344 7.93793 11.221 8.40593 11.221C8.87993 11.221 9.27593 11.35 9.59393 11.608C9.91793 11.866 10.1459 12.187 10.2779 12.571C10.4099 12.955 10.4669 13.375 10.4489 13.831H6.87593ZM13.0009 11.833H12.0829V16H11.5159V11.833H10.7239V11.356H11.5159V10.933C11.5159 10.489 11.5969 10.153 11.7589 9.925C11.9209 9.691 12.2149 9.574 12.6409 9.574C12.7969 9.574 12.9559 9.586 13.1179 9.61V10.096C12.9499 10.066 12.8119 10.051 12.7039 10.051C12.5839 10.051 12.4819 10.069 12.3979 10.105C12.3199 10.135 12.2599 10.174 12.2179 10.222C12.1759 10.264 12.1429 10.333 12.1189 10.429C12.1009 10.519 12.0889 10.597 12.0829 10.663C12.0829 10.723 12.0829 10.819 12.0829 10.951V11.356H13.0009V11.833ZM17.301 16H16.779V15.163H16.761C16.617 15.469 16.401 15.706 16.113 15.874C15.831 16.042 15.513 16.126 15.159 16.126C14.073 16.126 13.53 15.541 13.53 14.371V11.356H14.097V14.38C14.109 14.812 14.208 15.133 14.394 15.343C14.586 15.553 14.901 15.658 15.339 15.658C15.795 15.658 16.14 15.478 16.374 15.118C16.614 14.752 16.734 14.311 16.734 13.795V11.356H17.301V16ZM18.364 11.356H18.931V12.157H18.949C19.057 11.875 19.249 11.65 19.525 11.482C19.801 11.308 20.104 11.221 20.434 11.221C21.058 11.221 21.496 11.374 21.748 11.68C22.006 11.98 22.135 12.424 22.135 13.012V16H21.568V13.102C21.568 12.166 21.175 11.698 20.389 11.698C19.951 11.698 19.6 11.848 19.336 12.148C19.078 12.442 18.943 12.823 18.931 13.291V16H18.364V11.356ZM27.293 16H26.771V15.118H26.753C26.633 15.418 26.414 15.661 26.096 15.847C25.778 16.033 25.445 16.126 25.097 16.126C24.425 16.126 23.909 15.895 23.549 15.433C23.189 14.971 23.009 14.386 23.009 13.678C23.009 12.976 23.189 12.391 23.549 11.923C23.909 11.455 24.425 11.221 25.097 11.221C25.457 11.221 25.787 11.311 26.087 11.491C26.387 11.665 26.594 11.914 26.708 12.238H26.726V9.574H27.293V16ZM23.72 12.733C23.624 13.021 23.576 13.336 23.576 13.678C23.576 14.02 23.624 14.335 23.72 14.623C23.822 14.911 23.99 15.157 24.224 15.361C24.464 15.559 24.755 15.658 25.097 15.658C25.649 15.658 26.057 15.466 26.321 15.082C26.591 14.692 26.726 14.224 26.726 13.678C26.726 13.132 26.591 12.667 26.321 12.283C26.057 11.893 25.649 11.698 25.097 11.698C24.755 11.698 24.464 11.8 24.224 12.004C23.99 12.202 23.822 12.445 23.72 12.733ZM30.8798 11.356H31.4018V12.238H31.4198C31.5518 11.92 31.7648 11.671 32.0588 11.491C32.3528 11.311 32.6918 11.221 33.0758 11.221C33.7478 11.221 34.2638 11.455 34.6238 11.923C34.9838 12.391 35.1638 12.976 35.1638 13.678C35.1638 14.386 34.9838 14.971 34.6238 15.433C34.2638 15.895 33.7478 16.126 33.0758 16.126C32.7158 16.126 32.3858 16.039 32.0858 15.865C31.7858 15.691 31.5788 15.442 31.4648 15.118H31.4468V17.71H30.8798V11.356ZM34.4438 14.623C34.5458 14.335 34.5968 14.02 34.5968 13.678C34.5968 13.336 34.5458 13.021 34.4438 12.733C34.3478 12.445 34.1798 12.202 33.9398 12.004C33.7058 11.8 33.4178 11.698 33.0758 11.698C31.9898 11.698 31.4468 12.358 31.4468 13.678C31.4468 14.224 31.5788 14.692 31.8428 15.082C32.1128 15.466 32.5238 15.658 33.0758 15.658C33.4178 15.658 33.7058 15.559 33.9398 15.361C34.1798 15.157 34.3478 14.911 34.4438 14.623ZM39.2068 12.292C38.9188 11.896 38.5198 11.698 38.0098 11.698C37.4998 11.698 37.1008 11.896 36.8128 12.292C36.5248 12.682 36.3808 13.144 36.3808 13.678C36.3808 14.212 36.5248 14.677 36.8128 15.073C37.1008 15.463 37.4998 15.658 38.0098 15.658C38.5198 15.658 38.9188 15.463 39.2068 15.073C39.4948 14.677 39.6388 14.212 39.6388 13.678C39.6388 13.144 39.4948 12.682 39.2068 12.292ZM36.3988 11.932C36.7888 11.458 37.3258 11.221 38.0098 11.221C38.6938 11.221 39.2308 11.458 39.6208 11.932C40.0108 12.4 40.2058 12.982 40.2058 13.678C40.2058 14.38 40.0108 14.965 39.6208 15.433C39.2308 15.895 38.6938 16.126 38.0098 16.126C37.3258 16.126 36.7888 15.895 36.3988 15.433C36.0088 14.965 35.8138 14.38 35.8138 13.678C35.8138 12.982 36.0088 12.4 36.3988 11.932ZM41.0578 9.574H41.6248V16H41.0578V9.574ZM42.7189 9.574H43.2859V10.483H42.7189V9.574ZM42.7189 11.356H43.2859V16H42.7189V11.356ZM47.6471 12.814C47.4851 12.07 47.0471 11.698 46.3331 11.698C45.8231 11.698 45.4241 11.896 45.1361 12.292C44.8481 12.682 44.7041 13.144 44.7041 13.678C44.7041 14.212 44.8481 14.677 45.1361 15.073C45.4241 15.463 45.8231 15.658 46.3331 15.658C46.6811 15.658 46.9841 15.532 47.2421 15.28C47.5001 15.028 47.6471 14.713 47.6831 14.335H48.2501C48.1721 14.899 47.9651 15.34 47.6291 15.658C47.2931 15.97 46.8611 16.126 46.3331 16.126C45.6491 16.126 45.1121 15.895 44.7221 15.433C44.3321 14.965 44.1371 14.38 44.1371 13.678C44.1371 12.982 44.3321 12.4 44.7221 11.932C45.1121 11.458 45.6491 11.221 46.3331 11.221C46.8491 11.221 47.2751 11.356 47.6111 11.626C47.9471 11.896 48.1481 12.292 48.2141 12.814H47.6471ZM48.516 11.356H49.119L50.649 15.316L52.08 11.356H52.647L50.631 16.702C50.457 17.11 50.295 17.38 50.145 17.512C49.995 17.644 49.749 17.71 49.407 17.71C49.179 17.698 49.035 17.683 48.975 17.665V17.188C49.125 17.218 49.254 17.233 49.362 17.233C49.482 17.233 49.584 17.218 49.668 17.188C49.752 17.158 49.824 17.101 49.884 17.017C49.95 16.939 49.998 16.87 50.028 16.81C50.058 16.75 50.106 16.648 50.172 16.504L50.37 15.982L48.516 11.356Z" fill="#6F6F6F"/>
<path d="M76.936 13.885C76.912 15.037 77.611 15.613 79.033 15.613C79.279 15.613 79.525 15.574 79.771 15.496C80.023 15.412 80.245 15.265 80.437 15.055C80.635 14.845 80.734 14.596 80.734 14.308C80.734 13.744 80.293 13.357 79.411 13.147L77.98 12.796C77.53 12.676 77.176 12.505 76.918 12.283C76.66 12.055 76.531 11.71 76.531 11.248C76.531 11.068 76.564 10.885 76.63 10.699C76.696 10.507 76.804 10.312 76.954 10.114C77.104 9.916 77.332 9.754 77.638 9.628C77.95 9.502 78.319 9.439 78.745 9.439C79.417 9.439 79.981 9.616 80.437 9.97C80.893 10.318 81.121 10.807 81.121 11.437H80.509C80.485 10.969 80.305 10.606 79.969 10.348C79.639 10.09 79.234 9.961 78.754 9.961C78.286 9.961 77.899 10.063 77.593 10.267C77.293 10.471 77.143 10.795 77.143 11.239C77.143 11.749 77.467 12.076 78.115 12.22L79.681 12.607C80.203 12.745 80.611 12.943 80.905 13.201C81.199 13.453 81.346 13.819 81.346 14.299C81.346 14.419 81.334 14.542 81.31 14.668C81.292 14.788 81.232 14.941 81.13 15.127C81.034 15.313 80.905 15.475 80.743 15.613C80.581 15.751 80.338 15.871 80.014 15.973C79.696 16.075 79.321 16.126 78.889 16.126C78.085 16.126 77.446 15.94 76.972 15.568C76.504 15.196 76.288 14.635 76.324 13.885H76.936ZM82.1999 9.574H82.7669V12.157H82.7849C82.8929 11.875 83.0849 11.65 83.3609 11.482C83.6369 11.308 83.9399 11.221 84.2699 11.221C84.8939 11.221 85.3319 11.374 85.5839 11.68C85.8419 11.98 85.9709 12.424 85.9709 13.012V16H85.4039V13.102C85.4039 12.166 85.0109 11.698 84.2249 11.698C83.7869 11.698 83.4359 11.848 83.1719 12.148C82.9139 12.442 82.7789 12.823 82.7669 13.291V16H82.1999V9.574ZM87.0519 9.574H87.6189V10.483H87.0519V9.574ZM87.0519 11.356H87.6189V16H87.0519V11.356ZM88.7041 11.356H89.2261V12.238H89.2441C89.3761 11.92 89.5891 11.671 89.8831 11.491C90.1771 11.311 90.5161 11.221 90.9001 11.221C91.5721 11.221 92.0881 11.455 92.4481 11.923C92.8081 12.391 92.9881 12.976 92.9881 13.678C92.9881 14.386 92.8081 14.971 92.4481 15.433C92.0881 15.895 91.5721 16.126 90.9001 16.126C90.5401 16.126 90.2101 16.039 89.9101 15.865C89.6101 15.691 89.4031 15.442 89.2891 15.118H89.2711V17.71H88.7041V11.356ZM92.2681 14.623C92.3701 14.335 92.4211 14.02 92.4211 13.678C92.4211 13.336 92.3701 13.021 92.2681 12.733C92.1721 12.445 92.0041 12.202 91.7641 12.004C91.5301 11.8 91.2421 11.698 90.9001 11.698C89.8141 11.698 89.2711 12.358 89.2711 13.678C89.2711 14.224 89.4031 14.692 89.6671 15.082C89.9371 15.466 90.3481 15.658 90.9001 15.658C91.2421 15.658 91.5301 15.559 91.7641 15.361C92.0041 15.157 92.1721 14.911 92.2681 14.623ZM93.872 11.356H94.394V12.238H94.412C94.544 11.92 94.757 11.671 95.051 11.491C95.345 11.311 95.684 11.221 96.068 11.221C96.74 11.221 97.256 11.455 97.616 11.923C97.976 12.391 98.156 12.976 98.156 13.678C98.156 14.386 97.976 14.971 97.616 15.433C97.256 15.895 96.74 16.126 96.068 16.126C95.708 16.126 95.378 16.039 95.078 15.865C94.778 15.691 94.571 15.442 94.457 15.118H94.439V17.71H93.872V11.356ZM97.436 14.623C97.538 14.335 97.589 14.02 97.589 13.678C97.589 13.336 97.538 13.021 97.436 12.733C97.34 12.445 97.172 12.202 96.932 12.004C96.698 11.8 96.41 11.698 96.068 11.698C94.982 11.698 94.439 12.358 94.439 13.678C94.439 14.224 94.571 14.692 94.835 15.082C95.105 15.466 95.516 15.658 96.068 15.658C96.41 15.658 96.698 15.559 96.932 15.361C97.172 15.157 97.34 14.911 97.436 14.623ZM99.049 9.574H99.616V10.483H99.049V9.574ZM99.049 11.356H99.616V16H99.049V11.356ZM100.692 11.356H101.259V12.157H101.277C101.385 11.875 101.577 11.65 101.853 11.482C102.129 11.308 102.432 11.221 102.762 11.221C103.386 11.221 103.824 11.374 104.076 11.68C104.334 11.98 104.463 12.424 104.463 13.012V16H103.896V13.102C103.896 12.166 103.503 11.698 102.717 11.698C102.279 11.698 101.928 11.848 101.664 12.148C101.406 12.442 101.271 12.823 101.259 13.291V16H100.692V11.356ZM109.459 15.622C109.459 16.342 109.297 16.891 108.973 17.269C108.649 17.653 108.124 17.845 107.398 17.845C106.888 17.845 106.447 17.725 106.075 17.485C105.709 17.251 105.508 16.903 105.472 16.441H106.039C106.093 16.759 106.246 16.993 106.498 17.143C106.75 17.293 107.05 17.368 107.398 17.368C108.394 17.368 108.892 16.786 108.892 15.622V14.992H108.874C108.742 15.286 108.547 15.52 108.289 15.694C108.031 15.862 107.734 15.946 107.398 15.946C106.69 15.946 106.162 15.727 105.814 15.289C105.472 14.851 105.301 14.275 105.301 13.561C105.301 12.895 105.487 12.34 105.859 11.896C106.237 11.446 106.75 11.221 107.398 11.221C107.728 11.221 108.028 11.311 108.298 11.491C108.568 11.671 108.76 11.893 108.874 12.157H108.892V11.356H109.459V15.622ZM107.398 15.469C107.866 15.469 108.232 15.289 108.496 14.929C108.76 14.563 108.892 14.128 108.892 13.624C108.892 13.108 108.766 12.658 108.514 12.274C108.268 11.89 107.896 11.698 107.398 11.698C106.894 11.698 106.513 11.887 106.255 12.265C105.997 12.637 105.868 13.09 105.868 13.624C105.868 14.134 105.997 14.569 106.255 14.929C106.519 15.289 106.9 15.469 107.398 15.469ZM113.041 11.356H113.563V12.238H113.581C113.713 11.92 113.926 11.671 114.22 11.491C114.514 11.311 114.853 11.221 115.237 11.221C115.909 11.221 116.425 11.455 116.785 11.923C117.145 12.391 117.325 12.976 117.325 13.678C117.325 14.386 117.145 14.971 116.785 15.433C116.425 15.895 115.909 16.126 115.237 16.126C114.877 16.126 114.547 16.039 114.247 15.865C113.947 15.691 113.74 15.442 113.626 15.118H113.608V17.71H113.041V11.356ZM116.605 14.623C116.707 14.335 116.758 14.02 116.758 13.678C116.758 13.336 116.707 13.021 116.605 12.733C116.509 12.445 116.341 12.202 116.101 12.004C115.867 11.8 115.579 11.698 115.237 11.698C114.151 11.698 113.608 12.358 113.608 13.678C113.608 14.224 113.74 14.692 114.004 15.082C114.274 15.466 114.685 15.658 115.237 15.658C115.579 15.658 115.867 15.559 116.101 15.361C116.341 15.157 116.509 14.911 116.605 14.623ZM121.368 12.292C121.08 11.896 120.681 11.698 120.171 11.698C119.661 11.698 119.262 11.896 118.974 12.292C118.686 12.682 118.542 13.144 118.542 13.678C118.542 14.212 118.686 14.677 118.974 15.073C119.262 15.463 119.661 15.658 120.171 15.658C120.681 15.658 121.08 15.463 121.368 15.073C121.656 14.677 121.8 14.212 121.8 13.678C121.8 13.144 121.656 12.682 121.368 12.292ZM118.56 11.932C118.95 11.458 119.487 11.221 120.171 11.221C120.855 11.221 121.392 11.458 121.782 11.932C122.172 12.4 122.367 12.982 122.367 13.678C122.367 14.38 122.172 14.965 121.782 15.433C121.392 15.895 120.855 16.126 120.171 16.126C119.487 16.126 118.95 15.895 118.56 15.433C118.17 14.965 117.975 14.38 117.975 13.678C117.975 12.982 118.17 12.4 118.56 11.932ZM123.219 9.574H123.786V16H123.219V9.574ZM124.88 9.574H125.447V10.483H124.88V9.574ZM124.88 11.356H125.447V16H124.88V11.356ZM129.808 12.814C129.646 12.07 129.208 11.698 128.494 11.698C127.984 11.698 127.585 11.896 127.297 12.292C127.009 12.682 126.865 13.144 126.865 13.678C126.865 14.212 127.009 14.677 127.297 15.073C127.585 15.463 127.984 15.658 128.494 15.658C128.842 15.658 129.145 15.532 129.403 15.28C129.661 15.028 129.808 14.713 129.844 14.335H130.411C130.333 14.899 130.126 15.34 129.79 15.658C129.454 15.97 129.022 16.126 128.494 16.126C127.81 16.126 127.273 15.895 126.883 15.433C126.493 14.965 126.298 14.38 126.298 13.678C126.298 12.982 126.493 12.4 126.883 11.932C127.273 11.458 127.81 11.221 128.494 11.221C129.01 11.221 129.436 11.356 129.772 11.626C130.108 11.896 130.309 12.292 130.375 12.814H129.808ZM130.677 11.356H131.28L132.81 15.316L134.241 11.356H134.808L132.792 16.702C132.618 17.11 132.456 17.38 132.306 17.512C132.156 17.644 131.91 17.71 131.568 17.71C131.34 17.698 131.196 17.683 131.136 17.665V17.188C131.286 17.218 131.415 17.233 131.523 17.233C131.643 17.233 131.745 17.218 131.829 17.188C131.913 17.158 131.985 17.101 132.045 17.017C132.111 16.939 132.159 16.87 132.189 16.81C132.219 16.75 132.267 16.648 132.333 16.504L132.531 15.982L130.677 11.356Z" fill="#6F6F6F"/>
<path d="M159.26 12.724H161.366C161.81 12.724 162.158 12.613 162.41 12.391C162.668 12.169 162.797 11.842 162.797 11.41C162.797 10.978 162.668 10.651 162.41 10.429C162.158 10.207 161.81 10.096 161.366 10.096H159.26V12.724ZM158.648 9.574H161.501C162.083 9.574 162.545 9.736 162.887 10.06C163.235 10.384 163.409 10.834 163.409 11.41C163.409 11.986 163.235 12.436 162.887 12.76C162.545 13.084 162.083 13.246 161.501 13.246H159.26V16H158.648V9.574ZM164.209 11.356H164.731V12.445H164.749C164.893 12.061 165.118 11.77 165.424 11.572C165.73 11.368 166.09 11.275 166.504 11.293V11.86C166 11.836 165.586 11.986 165.262 12.31C164.938 12.628 164.776 13.033 164.776 13.525V16H164.209V11.356ZM167.057 9.574H167.624V10.483H167.057V9.574ZM167.057 11.356H167.624V16H167.057V11.356ZM168.187 11.356H168.817L170.275 15.433H170.293L171.733 11.356H172.318L170.581 16H169.978L168.187 11.356ZM172.821 12.778C172.857 12.25 173.04 11.86 173.37 11.608C173.7 11.35 174.144 11.221 174.702 11.221C175.842 11.221 176.412 11.719 176.412 12.715V15.181C176.412 15.409 176.523 15.523 176.745 15.523C176.817 15.523 176.877 15.511 176.925 15.487V15.964C176.805 15.988 176.682 16 176.556 16C176.292 16 176.115 15.934 176.025 15.802C175.935 15.664 175.89 15.46 175.89 15.19H175.872C175.65 15.52 175.419 15.76 175.179 15.91C174.939 16.054 174.606 16.126 174.18 16.126C173.718 16.126 173.343 16.015 173.055 15.793C172.767 15.565 172.623 15.226 172.623 14.776C172.623 14.608 172.647 14.458 172.695 14.326C172.743 14.188 172.797 14.074 172.857 13.984C172.923 13.888 173.022 13.804 173.154 13.732C173.292 13.654 173.409 13.597 173.505 13.561C173.601 13.519 173.745 13.48 173.937 13.444C174.135 13.408 174.285 13.384 174.387 13.372C174.489 13.354 174.654 13.333 174.882 13.309C174.984 13.297 175.062 13.288 175.116 13.282C175.38 13.258 175.566 13.207 175.674 13.129C175.788 13.051 175.845 12.892 175.845 12.652C175.845 12.298 175.737 12.052 175.521 11.914C175.305 11.77 175.008 11.698 174.63 11.698C174.252 11.698 173.952 11.788 173.73 11.968C173.514 12.142 173.4 12.412 173.388 12.778H172.821ZM175.845 13.462H175.827C175.779 13.552 175.62 13.621 175.35 13.669C175.248 13.687 175.086 13.714 174.864 13.75C174.642 13.78 174.471 13.807 174.351 13.831C174.231 13.849 174.084 13.885 173.91 13.939C173.742 13.987 173.613 14.041 173.523 14.101C173.439 14.161 173.361 14.248 173.289 14.362C173.223 14.47 173.19 14.596 173.19 14.74C173.19 15.016 173.292 15.238 173.496 15.406C173.7 15.574 173.943 15.658 174.225 15.658C174.681 15.658 175.065 15.526 175.377 15.262C175.689 14.992 175.845 14.638 175.845 14.2V13.462ZM180.818 12.814C180.656 12.07 180.218 11.698 179.504 11.698C178.994 11.698 178.595 11.896 178.307 12.292C178.019 12.682 177.875 13.144 177.875 13.678C177.875 14.212 178.019 14.677 178.307 15.073C178.595 15.463 178.994 15.658 179.504 15.658C179.852 15.658 180.155 15.532 180.413 15.28C180.671 15.028 180.818 14.713 180.854 14.335H181.421C181.343 14.899 181.136 15.34 180.8 15.658C180.464 15.97 180.032 16.126 179.504 16.126C178.82 16.126 178.283 15.895 177.893 15.433C177.503 14.965 177.308 14.38 177.308 13.678C177.308 12.982 177.503 12.4 177.893 11.932C178.283 11.458 178.82 11.221 179.504 11.221C180.02 11.221 180.446 11.356 180.782 11.626C181.118 11.896 181.319 12.292 181.385 12.814H180.818ZM181.687 11.356H182.29L183.82 15.316L185.251 11.356H185.818L183.802 16.702C183.628 17.11 183.466 17.38 183.316 17.512C183.166 17.644 182.92 17.71 182.578 17.71C182.35 17.698 182.206 17.683 182.146 17.665V17.188C182.296 17.218 182.425 17.233 182.533 17.233C182.653 17.233 182.755 17.218 182.839 17.188C182.923 17.158 182.995 17.101 183.055 17.017C183.121 16.939 183.169 16.87 183.199 16.81C183.229 16.75 183.277 16.648 183.343 16.504L183.541 15.982L181.687 11.356ZM188.88 11.356H189.402V12.238H189.42C189.552 11.92 189.765 11.671 190.059 11.491C190.353 11.311 190.692 11.221 191.076 11.221C191.748 11.221 192.264 11.455 192.624 11.923C192.984 12.391 193.164 12.976 193.164 13.678C193.164 14.386 192.984 14.971 192.624 15.433C192.264 15.895 191.748 16.126 191.076 16.126C190.716 16.126 190.386 16.039 190.086 15.865C189.786 15.691 189.579 15.442 189.465 15.118H189.447V17.71H188.88V11.356ZM192.444 14.623C192.546 14.335 192.597 14.02 192.597 13.678C192.597 13.336 192.546 13.021 192.444 12.733C192.348 12.445 192.18 12.202 191.94 12.004C191.706 11.8 191.418 11.698 191.076 11.698C189.99 11.698 189.447 12.358 189.447 13.678C189.447 14.224 189.579 14.692 189.843 15.082C190.113 15.466 190.524 15.658 191.076 15.658C191.418 15.658 191.706 15.559 191.94 15.361C192.18 15.157 192.348 14.911 192.444 14.623ZM197.207 12.292C196.919 11.896 196.52 11.698 196.01 11.698C195.5 11.698 195.101 11.896 194.813 12.292C194.525 12.682 194.381 13.144 194.381 13.678C194.381 14.212 194.525 14.677 194.813 15.073C195.101 15.463 195.5 15.658 196.01 15.658C196.52 15.658 196.919 15.463 197.207 15.073C197.495 14.677 197.639 14.212 197.639 13.678C197.639 13.144 197.495 12.682 197.207 12.292ZM194.399 11.932C194.789 11.458 195.326 11.221 196.01 11.221C196.694 11.221 197.231 11.458 197.621 11.932C198.011 12.4 198.206 12.982 198.206 13.678C198.206 14.38 198.011 14.965 197.621 15.433C197.231 15.895 196.694 16.126 196.01 16.126C195.326 16.126 194.789 15.895 194.399 15.433C194.009 14.965 193.814 14.38 193.814 13.678C193.814 12.982 194.009 12.4 194.399 11.932ZM199.058 9.574H199.625V16H199.058V9.574ZM200.719 9.574H201.286V10.483H200.719V9.574ZM200.719 11.356H201.286V16H200.719V11.356ZM205.647 12.814C205.485 12.07 205.047 11.698 204.333 11.698C203.823 11.698 203.424 11.896 203.136 12.292C202.848 12.682 202.704 13.144 202.704 13.678C202.704 14.212 202.848 14.677 203.136 15.073C203.424 15.463 203.823 15.658 204.333 15.658C204.681 15.658 204.984 15.532 205.242 15.28C205.5 15.028 205.647 14.713 205.683 14.335H206.25C206.172 14.899 205.965 15.34 205.629 15.658C205.293 15.97 204.861 16.126 204.333 16.126C203.649 16.126 203.112 15.895 202.722 15.433C202.332 14.965 202.137 14.38 202.137 13.678C202.137 12.982 202.332 12.4 202.722 11.932C203.112 11.458 203.649 11.221 204.333 11.221C204.849 11.221 205.275 11.356 205.611 11.626C205.947 11.896 206.148 12.292 206.214 12.814H205.647ZM206.516 11.356H207.119L208.649 15.316L210.08 11.356H210.647L208.631 16.702C208.457 17.11 208.295 17.38 208.145 17.512C207.995 17.644 207.749 17.71 207.407 17.71C207.179 17.698 207.035 17.683 206.975 17.665V17.188C207.125 17.218 207.254 17.233 207.362 17.233C207.482 17.233 207.584 17.218 207.668 17.188C207.752 17.158 207.824 17.101 207.884 17.017C207.95 16.939 207.998 16.87 208.028 16.81C208.058 16.75 208.106 16.648 208.172 16.504L208.37 15.982L206.516 11.356Z" fill="#6F6F6F"/>
<path d="M233.964 9.574H239.049V10.096H236.808V16H236.196V10.096H233.964V9.574ZM241.878 13.354C241.866 12.904 241.725 12.517 241.455 12.193C241.185 11.863 240.834 11.698 240.402 11.698C239.964 11.698 239.613 11.86 239.349 12.184C239.085 12.502 238.926 12.892 238.872 13.354H241.878ZM238.872 13.831C238.872 14.305 239.001 14.728 239.259 15.1C239.523 15.472 239.904 15.658 240.402 15.658C241.176 15.658 241.662 15.262 241.86 14.47H242.427C242.175 15.574 241.5 16.126 240.402 16.126C239.7 16.126 239.175 15.898 238.827 15.442C238.479 14.98 238.305 14.392 238.305 13.678C238.305 13.246 238.374 12.853 238.512 12.499C238.65 12.139 238.881 11.836 239.205 11.59C239.535 11.344 239.934 11.221 240.402 11.221C240.876 11.221 241.272 11.35 241.59 11.608C241.914 11.866 242.142 12.187 242.274 12.571C242.406 12.955 242.463 13.375 242.445 13.831H238.872ZM243.206 11.356H243.728V12.445H243.746C243.89 12.061 244.115 11.77 244.421 11.572C244.727 11.368 245.087 11.275 245.501 11.293V11.86C244.997 11.836 244.583 11.986 244.259 12.31C243.935 12.628 243.773 13.033 243.773 13.525V16H243.206V11.356ZM246.045 11.356H246.567V12.139H246.594C246.912 11.527 247.419 11.221 248.115 11.221C248.433 11.221 248.712 11.299 248.952 11.455C249.198 11.611 249.363 11.836 249.447 12.13C249.579 11.836 249.777 11.611 250.041 11.455C250.311 11.299 250.605 11.221 250.923 11.221C251.949 11.221 252.462 11.764 252.462 12.85V16H251.895V12.877C251.895 12.481 251.811 12.187 251.643 11.995C251.475 11.797 251.193 11.698 250.797 11.698C249.957 11.698 249.537 12.256 249.537 13.372V16H248.97V12.85C248.97 12.082 248.646 11.698 247.998 11.698C247.536 11.698 247.188 11.854 246.954 12.166C246.726 12.478 246.612 12.892 246.612 13.408V16H246.045V11.356ZM256.323 12.715C256.311 12.379 256.191 12.127 255.963 11.959C255.735 11.785 255.45 11.698 255.108 11.698C254.814 11.698 254.556 11.764 254.334 11.896C254.118 12.022 254.01 12.223 254.01 12.499C254.01 12.859 254.331 13.12 254.973 13.282L255.729 13.453C256.101 13.507 256.413 13.642 256.665 13.858C256.923 14.074 257.052 14.368 257.052 14.74C257.052 15.208 256.866 15.556 256.494 15.784C256.122 16.012 255.687 16.126 255.189 16.126C254.013 16.126 253.377 15.583 253.281 14.497H253.848C253.872 14.869 254.007 15.157 254.253 15.361C254.505 15.559 254.826 15.658 255.216 15.658C255.54 15.658 255.831 15.586 256.089 15.442C256.353 15.292 256.485 15.07 256.485 14.776C256.485 14.53 256.395 14.347 256.215 14.227C256.041 14.107 255.792 14.008 255.468 13.93L254.739 13.768C254.313 13.66 253.989 13.516 253.767 13.336C253.551 13.156 253.443 12.886 253.443 12.526C253.443 12.088 253.617 11.761 253.965 11.545C254.313 11.329 254.721 11.221 255.189 11.221C255.675 11.221 256.074 11.35 256.386 11.608C256.698 11.86 256.866 12.229 256.89 12.715H256.323ZM263.539 12.292C263.251 11.896 262.852 11.698 262.342 11.698C261.832 11.698 261.433 11.896 261.145 12.292C260.857 12.682 260.713 13.144 260.713 13.678C260.713 14.212 260.857 14.677 261.145 15.073C261.433 15.463 261.832 15.658 262.342 15.658C262.852 15.658 263.251 15.463 263.539 15.073C263.827 14.677 263.971 14.212 263.971 13.678C263.971 13.144 263.827 12.682 263.539 12.292ZM260.731 11.932C261.121 11.458 261.658 11.221 262.342 11.221C263.026 11.221 263.563 11.458 263.953 11.932C264.343 12.4 264.538 12.982 264.538 13.678C264.538 14.38 264.343 14.965 263.953 15.433C263.563 15.895 263.026 16.126 262.342 16.126C261.658 16.126 261.121 15.895 260.731 15.433C260.341 14.965 260.146 14.38 260.146 13.678C260.146 12.982 260.341 12.4 260.731 11.932ZM267.172 11.833H266.254V16H265.687V11.833H264.895V11.356H265.687V10.933C265.687 10.489 265.768 10.153 265.93 9.925C266.092 9.691 266.386 9.574 266.812 9.574C266.968 9.574 267.127 9.586 267.289 9.61V10.096C267.121 10.066 266.983 10.051 266.875 10.051C266.755 10.051 266.653 10.069 266.569 10.105C266.491 10.135 266.431 10.174 266.389 10.222C266.347 10.264 266.314 10.333 266.29 10.429C266.272 10.519 266.26 10.597 266.254 10.663C266.254 10.723 266.254 10.819 266.254 10.951V11.356H267.172V11.833ZM272.996 12.715C272.984 12.379 272.864 12.127 272.636 11.959C272.408 11.785 272.123 11.698 271.781 11.698C271.487 11.698 271.229 11.764 271.007 11.896C270.791 12.022 270.683 12.223 270.683 12.499C270.683 12.859 271.004 13.12 271.646 13.282L272.402 13.453C272.774 13.507 273.086 13.642 273.338 13.858C273.596 14.074 273.725 14.368 273.725 14.74C273.725 15.208 273.539 15.556 273.167 15.784C272.795 16.012 272.36 16.126 271.862 16.126C270.686 16.126 270.05 15.583 269.954 14.497H270.521C270.545 14.869 270.68 15.157 270.926 15.361C271.178 15.559 271.499 15.658 271.889 15.658C272.213 15.658 272.504 15.586 272.762 15.442C273.026 15.292 273.158 15.07 273.158 14.776C273.158 14.53 273.068 14.347 272.888 14.227C272.714 14.107 272.465 14.008 272.141 13.93L271.412 13.768C270.986 13.66 270.662 13.516 270.44 13.336C270.224 13.156 270.116 12.886 270.116 12.526C270.116 12.088 270.29 11.761 270.638 11.545C270.986 11.329 271.394 11.221 271.862 11.221C272.348 11.221 272.747 11.35 273.059 11.608C273.371 11.86 273.539 12.229 273.563 12.715H272.996ZM277.887 13.354C277.875 12.904 277.734 12.517 277.464 12.193C277.194 11.863 276.843 11.698 276.411 11.698C275.973 11.698 275.622 11.86 275.358 12.184C275.094 12.502 274.935 12.892 274.881 13.354H277.887ZM274.881 13.831C274.881 14.305 275.01 14.728 275.268 15.1C275.532 15.472 275.913 15.658 276.411 15.658C277.185 15.658 277.671 15.262 277.869 14.47H278.436C278.184 15.574 277.509 16.126 276.411 16.126C275.709 16.126 275.184 15.898 274.836 15.442C274.488 14.98 274.314 14.392 274.314 13.678C274.314 13.246 274.383 12.853 274.521 12.499C274.659 12.139 274.89 11.836 275.214 11.59C275.544 11.344 275.943 11.221 276.411 11.221C276.885 11.221 277.281 11.35 277.599 11.608C277.923 11.866 278.151 12.187 278.283 12.571C278.415 12.955 278.472 13.375 278.454 13.831H274.881ZM279.215 11.356H279.737V12.445H279.755C279.899 12.061 280.124 11.77 280.43 11.572C280.736 11.368 281.096 11.275 281.51 11.293V11.86C281.006 11.836 280.592 11.986 280.268 12.31C279.944 12.628 279.782 13.033 279.782 13.525V16H279.215V11.356ZM281.532 11.356H282.162L283.62 15.433H283.638L285.078 11.356H285.663L283.926 16H283.323L281.532 11.356ZM286.229 9.574H286.796V10.483H286.229V9.574ZM286.229 11.356H286.796V16H286.229V11.356ZM291.157 12.814C290.995 12.07 290.557 11.698 289.843 11.698C289.333 11.698 288.934 11.896 288.646 12.292C288.358 12.682 288.214 13.144 288.214 13.678C288.214 14.212 288.358 14.677 288.646 15.073C288.934 15.463 289.333 15.658 289.843 15.658C290.191 15.658 290.494 15.532 290.752 15.28C291.01 15.028 291.157 14.713 291.193 14.335H291.76C291.682 14.899 291.475 15.34 291.139 15.658C290.803 15.97 290.371 16.126 289.843 16.126C289.159 16.126 288.622 15.895 288.232 15.433C287.842 14.965 287.647 14.38 287.647 13.678C287.647 12.982 287.842 12.4 288.232 11.932C288.622 11.458 289.159 11.221 289.843 11.221C290.359 11.221 290.785 11.356 291.121 11.626C291.457 11.896 291.658 12.292 291.724 12.814H291.157ZM295.887 13.354C295.875 12.904 295.734 12.517 295.464 12.193C295.194 11.863 294.843 11.698 294.411 11.698C293.973 11.698 293.622 11.86 293.358 12.184C293.094 12.502 292.935 12.892 292.881 13.354H295.887ZM292.881 13.831C292.881 14.305 293.01 14.728 293.268 15.1C293.532 15.472 293.913 15.658 294.411 15.658C295.185 15.658 295.671 15.262 295.869 14.47H296.436C296.184 15.574 295.509 16.126 294.411 16.126C293.709 16.126 293.184 15.898 292.836 15.442C292.488 14.98 292.314 14.392 292.314 13.678C292.314 13.246 292.383 12.853 292.521 12.499C292.659 12.139 292.89 11.836 293.214 11.59C293.544 11.344 293.943 11.221 294.411 11.221C294.885 11.221 295.281 11.35 295.599 11.608C295.923 11.866 296.151 12.187 296.283 12.571C296.415 12.955 296.472 13.375 296.454 13.831H292.881ZM299.996 12.715C299.984 12.379 299.864 12.127 299.636 11.959C299.408 11.785 299.123 11.698 298.781 11.698C298.487 11.698 298.229 11.764 298.007 11.896C297.791 12.022 297.683 12.223 297.683 12.499C297.683 12.859 298.004 13.12 298.646 13.282L299.402 13.453C299.774 13.507 300.086 13.642 300.338 13.858C300.596 14.074 300.725 14.368 300.725 14.74C300.725 15.208 300.539 15.556 300.167 15.784C299.795 16.012 299.36 16.126 298.862 16.126C297.686 16.126 297.05 15.583 296.954 14.497H297.521C297.545 14.869 297.68 15.157 297.926 15.361C298.178 15.559 298.499 15.658 298.889 15.658C299.213 15.658 299.504 15.586 299.762 15.442C300.026 15.292 300.158 15.07 300.158 14.776C300.158 14.53 300.068 14.347 299.888 14.227C299.714 14.107 299.465 14.008 299.141 13.93L298.412 13.768C297.986 13.66 297.662 13.516 297.44 13.336C297.224 13.156 297.116 12.886 297.116 12.526C297.116 12.088 297.29 11.761 297.638 11.545C297.986 11.329 298.394 11.221 298.862 11.221C299.348 11.221 299.747 11.35 300.059 11.608C300.371 11.86 300.539 12.229 300.563 12.715H299.996Z" fill="#6F6F6F"/>
</svg>
