<svg width="76" height="40" viewBox="0 0 76 40" fill="none" xmlns="http://www.w3.org/2000/svg">
<path d="M0 0H76V40H0V0Z" fill="#6F6F6F"/>
<path d="M23.422 22.08H27.356L25.424 16.956L23.422 22.08ZM24.934 16.004H25.998L29.918 26H28.896L27.678 22.892H23.128L21.924 26H20.916L24.934 16.004ZM30.6584 18.776H31.4704V20.148H31.4984C31.7037 19.6533 32.035 19.266 32.4924 18.986C32.9497 18.706 33.477 18.566 34.0744 18.566C35.1197 18.566 35.9224 18.93 36.4824 19.658C37.0424 20.386 37.3224 21.296 37.3224 22.388C37.3224 23.4893 37.0424 24.3993 36.4824 25.118C35.9224 25.8367 35.1197 26.196 34.0744 26.196C33.5144 26.196 33.001 26.0607 32.5344 25.79C32.0677 25.5193 31.7457 25.132 31.5684 24.628H31.5404V28.66H30.6584V18.776ZM36.2024 23.858C36.361 23.41 36.4404 22.92 36.4404 22.388C36.4404 21.856 36.361 21.366 36.2024 20.918C36.053 20.47 35.7917 20.092 35.4184 19.784C35.0544 19.4667 34.6064 19.308 34.0744 19.308C32.385 19.308 31.5404 20.3347 31.5404 22.388C31.5404 23.2373 31.7457 23.9653 32.1564 24.572C32.5764 25.1693 33.2157 25.468 34.0744 25.468C34.6064 25.468 35.0544 25.314 35.4184 25.006C35.7917 24.6887 36.053 24.306 36.2024 23.858ZM38.6974 18.776H39.5094V20.148H39.5374C39.7428 19.6533 40.0741 19.266 40.5314 18.986C40.9888 18.706 41.5161 18.566 42.1134 18.566C43.1588 18.566 43.9614 18.93 44.5214 19.658C45.0814 20.386 45.3614 21.296 45.3614 22.388C45.3614 23.4893 45.0814 24.3993 44.5214 25.118C43.9614 25.8367 43.1588 26.196 42.1134 26.196C41.5534 26.196 41.0401 26.0607 40.5734 25.79C40.1068 25.5193 39.7848 25.132 39.6074 24.628H39.5794V28.66H38.6974V18.776ZM44.2414 23.858C44.4001 23.41 44.4794 22.92 44.4794 22.388C44.4794 21.856 44.4001 21.366 44.2414 20.918C44.0921 20.47 43.8308 20.092 43.4574 19.784C43.0934 19.4667 42.6454 19.308 42.1134 19.308C40.4241 19.308 39.5794 20.3347 39.5794 22.388C39.5794 23.2373 39.7848 23.9653 40.1954 24.572C40.6154 25.1693 41.2548 25.468 42.1134 25.468C42.6454 25.468 43.0934 25.314 43.4574 25.006C43.8308 24.6887 44.0921 24.306 44.2414 23.858ZM46.7505 16.004H47.6325V26H46.7505V16.004ZM48.5085 18.776H49.4465L51.8265 24.936L54.0525 18.776H54.9345L51.7985 27.092C51.5278 27.7267 51.2758 28.1467 51.0425 28.352C50.8091 28.5573 50.4265 28.66 49.8945 28.66C49.5398 28.6413 49.3158 28.618 49.2225 28.59V27.848C49.4558 27.8947 49.6565 27.918 49.8245 27.918C50.0111 27.918 50.1698 27.8947 50.3005 27.848C50.4311 27.8013 50.5431 27.7127 50.6365 27.582C50.7391 27.4607 50.8138 27.3533 50.8605 27.26C50.9071 27.1667 50.9818 27.008 51.0845 26.784L51.3925 25.972L48.5085 18.776Z" fill="#6F6F6F"/>
</svg>
