<svg width="224" height="36" viewBox="0 0 224 36" fill="none" xmlns="http://www.w3.org/2000/svg">
<g id="YOUR CART">
<path d="M7.4793 25.304L0.279297 1.39999H5.2233L8.0073 11.336C9.2233 15.656 9.8313 20.136 9.8313 24.776H9.9753C9.9753 20.008 10.5673 15.528 11.7513 11.336L14.5353 1.39999H19.4793L12.2793 25.304V35H7.4793V25.304Z" fill="#92E602"/>
<path d="M26.4798 9.12799C24.0478 11.56 22.8318 14.584 22.8318 18.2C22.8318 21.816 24.0478 24.84 26.4798 27.272C28.9118 29.704 31.9358 30.92 35.5518 30.92C39.1678 30.92 42.1918 29.704 44.6238 27.272C47.0558 24.84 48.2718 21.816 48.2718 18.2C48.2718 14.584 47.0558 11.56 44.6238 9.12799C42.1918 6.69599 39.1678 5.47999 35.5518 5.47999C31.9358 5.47999 28.9118 6.69599 26.4798 9.12799ZM23.0238 30.728C19.6958 27.368 18.0318 23.192 18.0318 18.2C18.0318 13.208 19.6958 9.04799 23.0238 5.71999C26.3838 2.35999 30.5598 0.679993 35.5518 0.679993C40.5438 0.679993 44.7038 2.35999 48.0318 5.71999C51.3918 9.04799 53.0718 13.208 53.0718 18.2C53.0718 23.192 51.3918 27.368 48.0318 30.728C44.7038 34.056 40.5438 35.72 35.5518 35.72C30.5598 35.72 26.3838 34.056 23.0238 30.728Z" fill="#92E602"/>
<path d="M55.7006 25.928V1.39999H60.5005V25.976C60.5005 27.384 60.9485 28.568 61.8445 29.528C62.7725 30.456 63.9246 30.92 65.3006 30.92C66.6766 30.92 67.8125 30.456 68.7085 29.528C69.6366 28.568 70.1005 27.384 70.1005 25.976V1.39999H74.9006V25.928C74.9006 28.68 73.9725 31 72.1165 32.888C70.2925 34.776 68.0366 35.72 65.3485 35.72C62.6285 35.72 60.3405 34.776 58.4845 32.888C56.6285 31 55.7006 28.68 55.7006 25.928Z" fill="#92E602"/>
<path d="M79.243 1.39999H97.915C100.635 1.39999 102.939 2.32799 104.827 4.18399C106.747 6.00799 107.707 8.27999 107.707 11C107.707 16.472 104.635 19.208 98.4911 19.208C96.955 19.208 95.355 19.032 93.691 18.68V18.824C94.715 19.048 95.675 19.384 96.571 19.832C97.499 20.248 98.315 20.696 99.0191 21.176C99.7231 21.656 100.427 22.28 101.131 23.048C101.835 23.784 102.427 24.456 102.907 25.064C103.387 25.672 103.931 26.472 104.539 27.464C105.147 28.424 105.627 29.224 105.979 29.864C106.331 30.504 106.795 31.384 107.371 32.504C107.979 33.592 108.443 34.424 108.763 35H103.243L94.8911 20.6H84.043V35H79.243V1.39999ZM97.915 6.19999H84.043V15.8H97.915C99.291 15.8 100.459 15.352 101.419 14.456C102.411 13.528 102.907 12.376 102.907 11C102.907 9.62399 102.411 8.48799 101.419 7.59199C100.459 6.66399 99.291 6.19999 97.915 6.19999Z" fill="#92E602"/>
<path d="M139.942 35.72C134.95 35.72 130.774 34.056 127.414 30.728C124.086 27.368 122.422 23.192 122.422 18.2C122.422 13.208 124.086 9.04799 127.414 5.71999C130.774 2.35999 134.95 0.679993 139.942 0.679993C144.806 0.679993 148.886 2.26399 152.182 5.43199V14.6C151.414 11.816 149.91 9.60799 147.67 7.97599C145.43 6.31199 142.854 5.47999 139.942 5.47999C136.326 5.47999 133.302 6.69599 130.87 9.12799C128.438 11.56 127.222 14.584 127.222 18.2C127.222 21.816 128.438 24.84 130.87 27.272C133.302 29.704 136.326 30.92 139.942 30.92C142.854 30.92 145.43 30.104 147.67 28.472C149.91 26.808 151.414 24.584 152.182 21.8V30.968C148.886 34.136 144.806 35.72 139.942 35.72Z" fill="#92E602"/>
<path d="M163.272 1.39999L158.472 35H153.624L158.424 1.39999H168.12L172.92 35H168.072L163.272 1.39999Z" fill="#92E602"/>
<path d="M175.337 1.39999H194.009C196.729 1.39999 199.033 2.32799 200.921 4.18399C202.841 6.00799 203.801 8.27999 203.801 11C203.801 16.472 200.729 19.208 194.585 19.208C193.049 19.208 191.449 19.032 189.785 18.68V18.824C190.809 19.048 191.769 19.384 192.665 19.832C193.593 20.248 194.409 20.696 195.113 21.176C195.817 21.656 196.521 22.28 197.225 23.048C197.929 23.784 198.521 24.456 199.001 25.064C199.481 25.672 200.025 26.472 200.633 27.464C201.241 28.424 201.721 29.224 202.073 29.864C202.425 30.504 202.889 31.384 203.465 32.504C204.073 33.592 204.537 34.424 204.857 35H199.337L190.985 20.6H180.137V35H175.337V1.39999ZM194.009 6.19999H180.137V15.8H194.009C195.385 15.8 196.553 15.352 197.513 14.456C198.505 13.528 199.001 12.376 199.001 11C199.001 9.62399 198.505 8.48799 197.513 7.59199C196.553 6.66399 195.385 6.19999 194.009 6.19999Z" fill="#92E602"/>
<path d="M205.796 6.19999V1.39999H223.076V6.19999H216.836V35H212.036V6.19999H205.796Z" fill="#92E602"/>
</g>
</svg>
